<svg xmlns="http://www.w3.org/2000/svg" viewBox="0 0 64 64">
  <defs>
    <linearGradient id="bg" x1="0%" y1="0%" x2="100%" y2="100%">
      <stop offset="0%" stop-color="#141722"/>
      <stop offset="100%" stop-color="#0c0e14"/>
    </linearGradient>
    <linearGradient id="sp" x1="0%" y1="0%" x2="100%" y2="100%">
      <stop offset="0%" stop-color="#ff6b2b"/>
      <stop offset="50%" stop-color="#ff8c42"/>
      <stop offset="100%" stop-color="#ffd93d"/>
    </linearGradient>
  </defs>
  <rect width="64" height="64" rx="14" fill="url(#bg)"/>
  <path d="M 32 8 C 32 8 18 26 18 36 C 18 46 24 52 32 52 C 40 52 46 46 46 36 C 46 26 32 8 32 8 Z"
        fill="url(#sp)" filter="drop-shadow(0 0 4px rgba(255,140,66,0.5))"/>
  <path d="M 32 22 C 32 22 26 30 26 36 C 26 40 28 44 32 44 C 36 44 38 40 38 36 C 38 30 32 22 32 22 Z"
        fill="#fff" opacity="0.5"/>
</svg>
